<svg height="32" xmlns="http://www.w3.org/2000/svg" viewBox="0 0 642.95 104.66"><defs><style>.cls-1,.cls-3{fill:#283593;}.cls-1,.cls-2{stroke:#283593;stroke-miterlimit:10;}.cls-1{stroke-width:0.5px;}.cls-2,.cls-4{fill:none;}.cls-2{stroke-width:2px;}</style></defs><title>logo-alt</title><g id="Layer_2" data-name="Layer 2"><g id="Layer_1-2" data-name="Layer 1"><path class="cls-1" d="M74.27,61.53c8.15-8,7.22-12-2.89-15A28.86,28.86,0,0,0,47.2,49.8c-8.1,5-8.08,12.57-.41,18,12.59,8.86,46.37,7,57.71-3.18a17.14,17.14,0,0,0,2.87-22.78A29,29,0,0,0,92.16,30c-23.26-7.8-46.47-8-68.9,2.7C12.7,37.75,4,45.18.92,57.54-1.54,46.59,3,38.09,10.64,31.06,26.25,16.67,45.78,11.54,66.13,9.89,89.52,8,111.79,13.18,132.65,24a48.8,48.8,0,0,1,12.78,9.23c10,10.3,10.56,24.29,1.39,35.37a45.33,45.33,0,0,1-19.6,13.75C97.75,93.2,67.79,94.71,37.63,85.94,27.18,82.9,16.3,79,15.05,65.57c-.89-9.6,7.72-19.16,21.24-24.32A80,80,0,0,1,70,35.7a34.29,34.29,0,0,1,15.91,4.65c5.85,3.53,11,8,8.06,15.78C91.68,62.36,82.91,64.69,74.27,61.53Z"/><path class="cls-2" d="M173.85,45.78,175.67,37h5.78l1.44-7,13.58-8.17L193.29,37h7.22l-1.82,8.79h-7.26l-3.84,18.36c-.68,3.33-1,5.23-1,5.7a2.65,2.65,0,0,0,.87,2.12,4.83,4.83,0,0,0,3.14.77c.52,0,1.82-.1,3.92-.29l-1.86,8.79a31.74,31.74,0,0,1-6.27.62q-6.29,0-9.12-2.42a8.3,8.3,0,0,1-2.85-6.7,62.61,62.61,0,0,1,1.53-9.33l3.67-17.62Z"/><path class="cls-2" d="M241.69,62.58H212c0,.46,0,.82,0,1.07a9.92,9.92,0,0,0,2.5,7.06,8,8,0,0,0,6.08,2.68q5.91,0,9.21-6.11l10.6,1.77a22.27,22.27,0,0,1-8.27,9.6,21.72,21.72,0,0,1-11.62,3.2q-8.83,0-14.36-5.59t-5.53-14.8a27,27,0,0,1,5-16Q212.35,36,225,36q8,0,12.79,5t4.75,13.93A33.1,33.1,0,0,1,241.69,62.58Zm-10-7.23c0-.52,0-.92,0-1.19,0-3.25-.73-5.68-2.19-7.31a7.5,7.5,0,0,0-5.86-2.43,9.31,9.31,0,0,0-6.58,2.76q-2.91,2.77-3.94,8.17Z"/><path class="cls-2" d="M244.64,80.82l12.67-60.5h11.8l-12.63,60.5Z"/><path class="cls-2" d="M282.3,49.41l-11.55-1a17.39,17.39,0,0,1,6.91-9.16q4.93-3.3,13.06-3.3,8.46,0,12.5,3.4a10.49,10.49,0,0,1,4,8.32,27.66,27.66,0,0,1-.35,4.21q-.36,2.22-2.46,11.72a60.45,60.45,0,0,0-1.73,11,22.67,22.67,0,0,0,1,6.24H292.2a23.3,23.3,0,0,1-.86-5,18.14,18.14,0,0,1-6,4.44,16.22,16.22,0,0,1-6.8,1.55,12.15,12.15,0,0,1-9-3.57A12.45,12.45,0,0,1,266,69.1a13.26,13.26,0,0,1,3.9-10q3.9-3.75,13.93-4.54,8.46-.7,11.3-1.69a14.49,14.49,0,0,0,.75-4,4,4,0,0,0-1.53-3.18,6.94,6.94,0,0,0-4.54-1.28,8.49,8.49,0,0,0-5,1.3A6.45,6.45,0,0,0,282.3,49.41Zm11.27,11a26.3,26.3,0,0,1-2.85.54q-8.91,1.07-11.64,3.13a4.79,4.79,0,0,0-1.94,4,4.65,4.65,0,0,0,1.49,3.49A5.43,5.43,0,0,0,282.55,73a10.41,10.41,0,0,0,5.05-1.3,8.86,8.86,0,0,0,3.55-3.35A22.68,22.68,0,0,0,293.24,62Z"/><path class="cls-2" d="M309.76,68.56l11.47-1.82a11,11,0,0,0,3.8,5.14,11,11,0,0,0,6.19,1.51,10.56,10.56,0,0,0,6.47-1.82,3.64,3.64,0,0,0,1.7-3,3.11,3.11,0,0,0-.87-2.15c-.61-.6-2.24-1.34-4.91-2.22q-10.73-3.55-13.29-5.62a10.27,10.27,0,0,1-4-8.41,12,12,0,0,1,3.88-9Q325.6,36,336.25,36q8.46,0,12.79,3.1a13.46,13.46,0,0,1,5.49,8.37l-10.94,1.9a6.75,6.75,0,0,0-2.8-3.59,12,12,0,0,0-6.36-1.61q-3.71,0-5.34,1.24a3.53,3.53,0,0,0-1.63,2.85,3.17,3.17,0,0,0,1.65,2.72,38.83,38.83,0,0,0,6.64,2.31q8.67,2.52,11.6,5a10.42,10.42,0,0,1,4.13,8.26,14,14,0,0,1-5.24,10.81q-5.25,4.58-14.78,4.58t-14.67-3.49A17.27,17.27,0,0,1,309.76,68.56Z"/><path class="cls-3" d="M364.46,37H375.6l-1.11,5.33Q381,36,388.19,36c3.3,0,5.85.69,7.63,2.06a9.29,9.29,0,0,1,3.43,5.7,17.59,17.59,0,0,1,6.52-5.53A18.73,18.73,0,0,1,414.6,36c3.49,0,6.22.94,8.17,2.81a9.81,9.81,0,0,1,2.93,7.42A45,45,0,0,1,424.55,54l-5.62,26.79H407.09L412.7,54q1-5,1-5.69a3.79,3.79,0,0,0-1.09-2.87,4.57,4.57,0,0,0-3.28-1q-4.41,0-7.88,4.66-2.52,3.35-4.29,11.85L393,80.82H381.18l5.53-26.5a38.77,38.77,0,0,0,.94-5.94,3.78,3.78,0,0,0-1.17-2.85,4.55,4.55,0,0,0-3.24-1.11,8.17,8.17,0,0,0-4,1.16,11.79,11.79,0,0,0-3.61,3.17A18.7,18.7,0,0,0,373,54c-.33,1-.86,3.24-1.61,6.73l-4.2,20.14H355.3Z"/><path class="cls-3" d="M428.63,62.62q0-12.18,6.87-19.42T453.56,36q9.69,0,15.14,5.34t5.45,14.39a27,27,0,0,1-6.81,18.4q-6.81,7.75-18.24,7.76a23.59,23.59,0,0,1-11-2.48,16.12,16.12,0,0,1-7.13-7A20.88,20.88,0,0,1,428.63,62.62Zm33.76-8.46a9.28,9.28,0,0,0-2.46-6.75,8.41,8.41,0,0,0-6.33-2.54,10.57,10.57,0,0,0-6.81,2.38,15.25,15.25,0,0,0-4.62,6.89,24.38,24.38,0,0,0-1.65,8.31,10.54,10.54,0,0,0,2.56,7.47,8.4,8.4,0,0,0,6.43,2.77,10,10,0,0,0,8.17-4.17A22.31,22.31,0,0,0,462.39,54.16Z"/><path class="cls-3" d="M516.39,80.82H505.17l1-4.75a22.11,22.11,0,0,1-6.33,4.44,17.75,17.75,0,0,1-7,1.34,14.23,14.23,0,0,1-11-4.65q-4.23-4.64-4.23-13.72a32.45,32.45,0,0,1,5.94-19q6-8.51,15.73-8.5,8.82,0,13.24,7l4.75-22.66H529ZM489,63a10.59,10.59,0,0,0,2.38,7.34A7.56,7.56,0,0,0,497.25,73a9.5,9.5,0,0,0,6-2.21A15,15,0,0,0,507.71,64a25.29,25.29,0,0,0,1.67-8.71,11.21,11.21,0,0,0-2.56-7.67,7.67,7.67,0,0,0-5.9-2.93q-5.21,0-8.54,5.78A24.53,24.53,0,0,0,489,63Z"/><path class="cls-3" d="M567.59,62.58H537.88c0,.46,0,.82,0,1.07a9.92,9.92,0,0,0,2.5,7.06,8,8,0,0,0,6.08,2.68q5.91,0,9.2-6.11l10.61,1.77a22.27,22.27,0,0,1-8.27,9.6,21.72,21.72,0,0,1-11.62,3.2q-8.83,0-14.36-5.59t-5.53-14.8a26.91,26.91,0,0,1,5-16Q538.25,36,550.88,36q8,0,12.79,5t4.75,13.93A33.1,33.1,0,0,1,567.59,62.58Zm-10-7.23c0-.52,0-.92,0-1.19,0-3.25-.73-5.68-2.19-7.31a7.5,7.5,0,0,0-5.86-2.43A9.31,9.31,0,0,0,543,47.18q-2.91,2.77-3.94,8.17Z"/><path class="cls-3" d="M569.23,80.82l12.67-60.5h11.8l-12.63,60.5Z"/><path class="cls-3" d="M590.61,62.62q0-12.18,6.87-19.42t18-7.24q9.71,0,15.15,5.34t5.45,14.39a27,27,0,0,1-6.81,18.4q-6.81,7.75-18.24,7.76a23.56,23.56,0,0,1-11-2.48,16.19,16.19,0,0,1-7.14-7A20.87,20.87,0,0,1,590.61,62.62Zm33.75-8.46a9.27,9.27,0,0,0-2.45-6.75,8.44,8.44,0,0,0-6.34-2.54,10.56,10.56,0,0,0-6.8,2.38,15.26,15.26,0,0,0-4.63,6.89,24.38,24.38,0,0,0-1.65,8.31,10.58,10.58,0,0,0,2.56,7.47,8.42,8.42,0,0,0,6.44,2.77,10,10,0,0,0,8.17-4.17A22.3,22.3,0,0,0,624.36,54.16Z"/><rect class="cls-4" x="0.25" width="642.7" height="104.66"/></g></g></svg>